<?xml version="1.0" encoding="UTF-8"?>
<svg id="katman_1" xmlns="http://www.w3.org/2000/svg" viewBox="0 0 1280 800">
  <defs>
    <style>
      .cls-1 {
        fill: #fff;
      }

      .cls-1, .cls-2 {
        stroke: #535666;
        stroke-miterlimit: 10;
      }

      .cls-2 {
        fill: none;
      }
    </style>
  </defs>
  <line class="cls-1" x1="513.25" y1="287.18" x2="573.25" y2="287.18"/>
  <line class="cls-1" x1="573.25" y1="287.18" x2="586.5" y2="259.5"/>
  <line class="cls-1" x1="614.5" y1="259.5" x2="586.5" y2="259.5"/>
  <line class="cls-1" x1="687.75" y1="288.18" x2="627.75" y2="288.18"/>
  <line class="cls-1" x1="675.5" y1="259.14" x2="657.5" y2="212.78"/>
  <line class="cls-1" x1="627.75" y1="288.18" x2="614.5" y2="259.5"/>
  <line class="cls-2" x1="513.5" y1="287.14" x2="513.5" y2="259.14"/>
  <line class="cls-1" x1="687.5" y1="288.14" x2="687.5" y2="259.14"/>
  <line class="cls-1" x1="513.5" y1="259.14" x2="526" y2="259.14"/>
  <line class="cls-1" x1="675.5" y1="259.14" x2="688" y2="259.14"/>
  <line class="cls-1" x1="525.5" y1="258.82" x2="543.5" y2="212.46"/>
  <line class="cls-1" x1="513.05" y1="139.41" x2="573.05" y2="139.41"/>
  <line class="cls-1" x1="573.05" y1="139.41" x2="586.5" y2="167.5"/>
  <line class="cls-1" x1="614.5" y1="167.5" x2="586.5" y2="167.5"/>
  <line class="cls-1" x1="687.55" y1="138.41" x2="627.55" y2="138.41"/>
  <line class="cls-1" x1="675.3" y1="167.45" x2="657.3" y2="213.8"/>
  <line class="cls-1" x1="627.55" y1="138.41" x2="614.5" y2="167.5"/>
  <line class="cls-2" x1="513.3" y1="139.45" x2="513.3" y2="167.45"/>
  <line class="cls-1" x1="687.3" y1="138.45" x2="687.3" y2="167.45"/>
  <line class="cls-1" x1="513.3" y1="167.45" x2="525.8" y2="167.45"/>
  <line class="cls-1" x1="675.3" y1="167.45" x2="687.8" y2="167.45"/>
  <line class="cls-1" x1="525.3" y1="167.77" x2="543.3" y2="214.12"/>
</svg>