<svg width="144" height="144" viewBox="0 0 144 144" fill="none" xmlns="http://www.w3.org/2000/svg">
<path fill-rule="evenodd" clip-rule="evenodd" d="M6 12C2.68629 12 0 14.6863 0 18V27V120C0 123.314 2.68629 126 6 126H138C141.314 126 144 123.314 144 120V33C144 29.6863 141.314 27 138 27H63L53.0752 15.9724C50.7995 13.4439 47.5575 12 44.1557 12H6Z" fill="url(#paint0_linear_5_245)"/>
<path d="M45.5978 39H6C2.68629 39 0 41.6863 0 45V117C0 120.314 2.68629 123 6 123H138C141.314 123 144 120.314 144 117V36C144 32.6863 141.314 30 138 30H61.875L52.6559 36.7048C50.6048 38.1965 48.1339 39 45.5978 39Z" fill="url(#paint1_linear_5_245)"/>
<path fill-rule="evenodd" clip-rule="evenodd" d="M6 39H45.5978C48.1339 39 50.6048 38.1965 52.6559 36.7048L61.875 30H138C141.314 30 144 32.6863 144 36V39C144 35.6863 141.314 33 138 33H61.875L52.6559 39.7048C50.6048 41.1965 48.1339 42 45.5978 42H6C2.68629 42 0 44.6863 0 48V45C0 41.6863 2.68629 39 6 39Z" fill="url(#paint2_linear_5_245)" fill-opacity="0.2"/>
<g filter="url(#filter0_d_5_245)">
<path d="M66.2054 73.685L21 123H123L74.9303 73.5569C72.5258 71.0837 68.5362 71.1423 66.2054 73.685Z" fill="url(#paint3_linear_5_245)"/>
</g>
<g filter="url(#filter1_d_5_245)">
<circle cx="91.5" cy="49.5" r="7.5" fill="#F2F2F2"/>
</g>
<defs>
<filter id="filter0_d_5_245" x="15" y="65.7394" width="114" height="63.2606" filterUnits="userSpaceOnUse" color-interpolation-filters="sRGB">
<feFlood flood-opacity="0" result="BackgroundImageFix"/>
<feColorMatrix in="SourceAlpha" type="matrix" values="0 0 0 0 0 0 0 0 0 0 0 0 0 0 0 0 0 0 127 0" result="hardAlpha"/>
<feOffset/>
<feGaussianBlur stdDeviation="3"/>
<feComposite in2="hardAlpha" operator="out"/>
<feColorMatrix type="matrix" values="0 0 0 0 0.129549 0 0 0 0 0.150191 0 0 0 0 0.170833 0 0 0 0.3 0"/>
<feBlend mode="normal" in2="BackgroundImageFix" result="effect1_dropShadow_5_245"/>
<feBlend mode="normal" in="SourceGraphic" in2="effect1_dropShadow_5_245" result="shape"/>
</filter>
<filter id="filter1_d_5_245" x="78" y="36" width="27" height="27" filterUnits="userSpaceOnUse" color-interpolation-filters="sRGB">
<feFlood flood-opacity="0" result="BackgroundImageFix"/>
<feColorMatrix in="SourceAlpha" type="matrix" values="0 0 0 0 0 0 0 0 0 0 0 0 0 0 0 0 0 0 127 0" result="hardAlpha"/>
<feOffset/>
<feGaussianBlur stdDeviation="3"/>
<feComposite in2="hardAlpha" operator="out"/>
<feColorMatrix type="matrix" values="0 0 0 0 0.129549 0 0 0 0 0.150191 0 0 0 0 0.170833 0 0 0 0.3 0"/>
<feBlend mode="normal" in2="BackgroundImageFix" result="effect1_dropShadow_5_245"/>
<feBlend mode="normal" in="SourceGraphic" in2="effect1_dropShadow_5_245" result="shape"/>
</filter>
<linearGradient id="paint0_linear_5_245" x1="12" y1="12" x2="135" y2="126" gradientUnits="userSpaceOnUse">
<stop stop-color="#0077D3"/>
<stop offset="1" stop-color="#114B8D"/>
</linearGradient>
<linearGradient id="paint1_linear_5_245" x1="12" y1="30" x2="115.403" y2="143.806" gradientUnits="userSpaceOnUse">
<stop stop-color="#29B0EB"/>
<stop offset="1" stop-color="#0669BC"/>
</linearGradient>
<linearGradient id="paint2_linear_5_245" x1="0" y1="30" x2="144.474" y2="42.5411" gradientUnits="userSpaceOnUse">
<stop stop-color="white"/>
<stop offset="1" stop-color="white" stop-opacity="0"/>
</linearGradient>
<linearGradient id="paint3_linear_5_245" x1="21" y1="69" x2="123" y2="123" gradientUnits="userSpaceOnUse">
<stop stop-color="#F0F5FF"/>
<stop offset="1" stop-color="#D2E0FF"/>
</linearGradient>
</defs>
</svg>
