<svg width="54" height="54" viewBox="0 0 54 54" fill="none" xmlns="http://www.w3.org/2000/svg">
<g clip-path="url(#clip0_1_5)">
<path d="M26.8954 48.5294C39.2209 48.5294 49.2127 38.644 49.2127 26.4499C49.2127 14.2557 39.2209 4.37041 26.8954 4.37041C14.5699 4.37041 4.57816 14.2557 4.57816 26.4499C4.57816 38.644 14.5699 48.5294 26.8954 48.5294Z" fill="url(#paint0_radial_1_5)"/>
<g filter="url(#filter0_f_1_5)">
<path d="M20.611 24.7069C20.0695 24.7157 19.4981 24.7522 18.9125 24.8156C18.298 24.8823 17.6463 24.9803 16.9768 25.1078C16.2786 25.2398 15.5361 25.4086 14.7724 25.6089L14.767 25.6096C14.7412 25.6167 14.7228 25.6306 14.7139 25.649L11.6699 32.377C11.653 32.4126 11.6833 32.4491 11.718 32.4685L11.9218 32.5672C11.9218 32.5672 11.9253 32.5685 11.9282 32.5705C11.9773 32.5915 12.0269 32.5908 12.0468 32.5889C12.0478 32.5889 12.0532 32.5876 12.0532 32.5876C13.1934 32.3084 14.2095 32.1081 15.1607 31.9742C16.0876 31.8445 16.9223 31.7827 17.7128 31.7853C18.3739 31.7882 18.9953 31.8325 19.6137 31.9202C20.1716 32.0001 20.7142 32.114 21.2716 32.2689C22.0532 32.4909 22.7698 32.7701 23.3069 32.9881L23.3119 32.9901V32.991C23.3287 32.9965 23.3783 33.0114 23.4259 32.9978C23.4259 32.9978 23.5603 32.9477 23.6005 32.9322L23.6144 32.926C23.6417 32.914 23.6789 32.8975 23.6898 32.8668L23.6917 32.86C23.6917 32.86 23.6927 32.861 23.6932 32.8616C23.6992 32.849 26.7229 26.3097 26.7229 26.3097L26.827 26.0851C26.8285 26.0796 26.83 26.0732 26.83 26.0667C26.83 26.0411 26.8126 26.0172 26.7834 26.0036C26.7824 26.0036 26.7799 26.0033 26.7799 26.0033C25.49 25.4513 24.0325 24.9182 22.1112 24.7564C21.6277 24.715 21.1238 24.6992 20.611 24.7069Z" fill="black"/>
</g>
<g filter="url(#filter1_f_1_5)">
<path d="M28.1794 26.6998C28.1442 26.7011 28.108 26.7098 28.0535 26.7315C28.0535 26.7322 28.053 26.7325 28.053 26.7325H28.0515L28.051 26.7334C28.0371 26.7396 28.0019 26.7548 27.9617 26.7749C27.8799 26.8153 27.8298 26.8483 27.8159 26.8706H27.8154C27.8154 26.8722 27.8124 26.8764 27.8124 26.8764L27.8129 26.8748L27.8124 26.8771V26.8777L24.7649 33.5442C24.7124 33.6442 24.8527 33.6989 24.8686 33.7044C25.6507 34.0357 26.3961 34.2968 27.1479 34.5009C27.5883 34.6216 28.0386 34.7235 28.4879 34.805C28.9744 34.894 29.4743 34.9629 29.9757 35.0088C30.5133 35.057 31.0677 35.0819 31.6237 35.081C32.2148 35.079 32.8273 35.0489 33.4428 34.9914C34.0929 34.9302 34.7664 34.8361 35.4448 34.7112C36.158 34.5808 36.8959 34.4122 37.6408 34.211C37.6418 34.211 37.6453 34.2094 37.6453 34.2094C37.6661 34.201 37.7157 34.1813 37.7405 34.1486C37.7405 34.1479 40.7166 27.5905 40.7176 27.5885C40.7176 27.5882 40.7166 27.5872 40.7166 27.5872V27.5866C40.7206 27.5769 40.7211 27.5668 40.7211 27.5581C40.7211 27.5041 40.668 27.4714 40.6675 27.4708C40.6675 27.4714 40.418 27.3459 40.418 27.3459L40.4175 27.3446C40.4012 27.3333 40.3575 27.3151 40.2509 27.3252C39.4872 27.4885 38.7502 27.6238 38.0569 27.7299C37.3884 27.8312 36.7407 27.9075 36.1302 27.956C34.9792 28.0479 33.9377 28.0479 32.9473 27.956C32.075 27.8752 31.2502 27.7221 30.426 27.4889C29.76 27.3006 29.0815 27.0566 28.291 26.7199L28.2885 26.7192H28.2895C28.2399 26.7056 28.2092 26.6998 28.1794 26.6998Z" fill="black"/>
</g>
<g filter="url(#filter2_f_1_5)">
<path d="M31.6614 18.5807C31.6609 18.5807 31.6093 18.6043 31.6093 18.6043C31.5047 18.6538 31.4422 18.692 31.4248 18.7182L31.4243 18.7188C31.4243 18.7188 31.4243 18.7192 31.4238 18.7192C31.4238 18.7201 31.4134 18.7418 31.4134 18.7418C31.4134 18.7431 28.356 25.4238 28.356 25.4238C28.3476 25.44 28.3441 25.4549 28.3441 25.4678C28.3441 25.541 28.4477 25.5785 28.4497 25.5788C28.6922 25.6814 28.9427 25.78 29.1941 25.871C30.3675 26.3333 31.527 26.6403 32.739 26.8092C33.4413 26.9085 34.1713 26.9606 34.9092 26.9648C35.7067 26.97 36.5418 26.9188 37.3889 26.8143C38.6461 26.6885 39.9236 26.441 41.1843 26.0806C41.1843 26.0799 41.1877 26.0793 41.1877 26.0793C41.2115 26.0719 41.2631 26.0499 41.2899 26.0178C41.2899 26.0162 44.3989 19.2747 44.3989 19.2747C44.4048 19.2624 44.4078 19.2514 44.4078 19.24C44.4078 19.1821 44.33 19.1336 44.2546 19.0915C44.2129 19.0663 44.1554 19.0343 44.1152 19.0233C44.0309 18.998 43.9446 19.0061 43.9188 19.0162C43.9183 19.0162 43.9169 19.0175 43.9169 19.0175L43.9164 19.0178C43.1551 19.2161 42.4157 19.3824 41.7179 19.5131C41.0504 19.6376 40.3997 19.7328 39.7847 19.7959C39.1995 19.856 38.6272 19.8887 38.0827 19.8939C37.5699 19.8984 37.0641 19.879 36.58 19.8347C35.7112 19.7551 34.879 19.5972 34.0389 19.3517C33.2042 19.108 32.4559 18.8043 31.8965 18.5668C31.8007 18.5393 31.7586 18.5412 31.6614 18.5807Z" fill="black"/>
</g>
<g filter="url(#filter3_f_1_5)">
<path d="M21.7655 16.7114C20.7107 16.8557 19.5582 17.0906 18.3406 17.4086C18.3297 17.4115 18.2955 17.4199 18.2841 17.4487L18.1259 17.7926L15.1944 24.1983C15.191 24.2051 15.19 24.2126 15.19 24.221C15.19 24.252 15.2113 24.2905 15.2351 24.3019C15.2396 24.3041 15.2455 24.3057 15.249 24.307L15.2495 24.3077L15.2698 24.3174L15.4503 24.4067L15.4558 24.4086C15.4618 24.4115 15.4682 24.4145 15.4722 24.4161C15.5094 24.4258 15.5188 24.4258 15.5282 24.4251H15.5317C15.5317 24.4245 15.5332 24.4245 15.5332 24.4245L15.5386 24.4232C15.5654 24.4219 15.6279 24.4041 15.6284 24.4035C18.2985 23.7347 20.434 23.4914 22.3488 23.6396C23.1656 23.7027 23.9556 23.8392 24.7649 24.056C25.4092 24.2291 26.0747 24.4555 26.8563 24.7684L26.8672 24.7716H26.8697L26.8791 24.7749H26.8796H26.8806L26.8831 24.7758L26.886 24.7771H26.8851C26.8856 24.7771 26.947 24.7965 26.9981 24.7878C26.9981 24.7875 27.1905 24.7328 27.1905 24.7328L27.1995 24.7289C27.2248 24.7173 27.2644 24.6995 27.2758 24.6674L29.204 20.4613L30.24 18.2012L30.3095 18.0521C30.3095 18.0517 30.31 18.0488 30.31 18.0488L30.36 17.9392C30.3615 17.9359 30.362 17.932 30.363 17.9278C30.363 17.9249 30.363 17.922 30.363 17.9188C30.363 17.8932 30.3467 17.8715 30.3179 17.8589C29.7054 17.5969 29.2194 17.4076 28.7418 17.2465L28.7096 17.2358C27.3314 16.7719 26.0048 16.5467 24.5353 16.5273C23.6744 16.5157 22.742 16.5771 21.7655 16.7114Z" fill="black"/>
</g>
<path d="M14.0847 26.1554C20.1477 23.6518 23.0825 24.9875 25.7105 26.7763L22.6751 37.2347C20.0374 35.4567 17.1694 33.9924 11.0823 36.5155L14.0489 26.1705L14.0847 26.1554Z" fill="url(#paint1_radial_1_5)"/>
<path d="M11.3058 36.8228C11.3256 36.8252 11.3605 36.8065 11.3605 36.8065C11.404 36.8367 11.4388 36.8563 11.4388 36.8563C11.4388 36.8563 11.3701 36.8721 11.3058 36.8228Z" fill="url(#paint2_radial_1_5)"/>
<path d="M22.5696 37.3526C22.5696 37.3526 22.6093 37.3909 22.6567 37.3793L22.4753 37.4879C22.4172 37.5141 22.3558 37.4719 22.3558 37.4719L22.5696 37.3526Z" fill="#152469"/>
<path d="M11.3643 36.8079C11.3643 36.8079 11.3281 36.8283 11.3082 36.8254L11.1079 36.6711L11.1045 36.6673C11.1336 36.675 11.1655 36.6711 11.1776 36.6692L11.3643 36.8079Z" fill="url(#paint3_radial_1_5)"/>
<path d="M22.6727 37.2076C22.693 37.2197 22.7143 37.2381 22.7341 37.2794C22.7235 37.3347 22.6799 37.3613 22.6514 37.3807C22.6146 37.3885 22.5629 37.3555 22.5629 37.3555C22.5928 37.3308 22.6412 37.2954 22.6727 37.2076Z" fill="#152469"/>
<path d="M11.1079 36.6712C11.0692 36.6382 11.0431 36.58 11.0591 36.5281L11.0944 36.5121C11.0803 36.5902 11.1345 36.645 11.1761 36.6712C11.1766 36.6712 11.1476 36.6838 11.1079 36.6712Z" fill="#172E65"/>
<path d="M11.3518 36.7987C17.1428 34.5313 19.736 35.7671 22.3747 37.4666C20.7946 36.4466 19.1709 35.6356 16.9285 35.6191C15.4268 35.6114 13.6532 35.9921 11.433 36.8569C11.433 36.8569 11.389 36.839 11.3518 36.7987Z" fill="url(#paint4_radial_1_5)"/>
<path d="M22.5682 37.3609C19.93 35.5808 17.197 34.2233 11.181 36.6736C11.1408 36.6488 11.0765 36.5873 11.0929 36.5121C17.1994 33.907 20.0379 35.4285 22.6756 37.2076C22.648 37.3027 22.5982 37.3376 22.5682 37.3609Z" fill="#094B8F"/>
<path d="M22.5721 37.3609L22.3577 37.4715C19.7215 35.7719 17.0524 34.5948 11.3643 36.8079L11.1757 36.6712C17.1932 34.2204 19.9324 35.5808 22.5721 37.3609Z" fill="#094B8F"/>
<path d="M22.6712 37.21L25.7105 26.7758C25.7438 26.7971 25.7617 26.8151 25.7791 26.8345L22.7341 37.2847C22.7167 37.2377 22.6712 37.21 22.6712 37.21Z" fill="url(#paint5_linear_1_5)"/>
<path d="M25.7298 26.704L25.7346 26.705C25.7733 26.7326 25.7888 26.786 25.7792 26.8345L25.7772 26.8408C25.7598 26.8228 25.7424 26.8034 25.7095 26.7811L25.7298 26.704Z" fill="url(#paint6_radial_1_5)"/>
<path opacity="0.66" d="M14.0494 26.1695L11.0943 36.5121L11.059 36.5286L14.0141 26.1608L14.0494 26.1695Z" fill="#063367"/>
<path opacity="0.42" d="M14.0141 26.1608L13.8738 26.6575L11.0591 36.5286C11.0436 36.58 11.0692 36.6387 11.1079 36.6717L11.3082 36.8254C11.3344 36.8434 11.3595 36.8506 11.3808 36.8555L14.3755 26.4508L14.3688 26.4426L14.0495 26.17L14.0141 26.1608ZM11.0997 36.5101V36.5082C11.1142 36.5034 11.1283 36.498 11.1413 36.4932C11.1268 36.4985 11.1142 36.5038 11.0997 36.5101ZM11.1762 36.6712C11.1563 36.6581 11.1331 36.6382 11.1162 36.6139C11.1336 36.6382 11.1568 36.6581 11.1762 36.6692C11.1766 36.6692 11.1766 36.6692 11.1762 36.6712Z" fill="url(#paint7_linear_1_5)"/>
<path opacity="0.42" d="M25.7671 26.7491L25.7095 26.7836L25.4574 27.0324C25.4584 27.0324 25.4584 27.0324 25.4584 27.0343C25.0486 28.4375 22.7486 36.3108 22.4003 37.4899C22.4221 37.4962 22.4487 37.4981 22.4743 37.4875L22.6557 37.3788C22.6553 37.3788 22.6543 37.3788 22.6538 37.3788C22.6809 37.3584 22.7215 37.3327 22.7336 37.2803C22.7336 37.2828 22.7336 37.2828 22.7336 37.2842L25.678 27.1808L25.7787 26.834C25.7816 26.8151 25.7787 26.7981 25.7758 26.7806C25.7743 26.7695 25.7709 26.7608 25.7671 26.7491Z" fill="url(#paint8_linear_1_5)"/>
<path d="M25.7095 26.7806L25.4574 27.0328C24.5827 26.4503 22.1729 24.9507 19.4515 25.1733C17.2425 25.3537 15.2976 26.0657 14.375 26.4503L14.0489 26.17L14.0722 26.0977C20.1608 23.5727 23.0965 24.9153 25.7317 26.7045L25.7298 26.7055H25.7342L25.7095 26.7806Z" fill="url(#paint9_linear_1_5)"/>
<path opacity="0.33" d="M14.3324 26.4125C20.422 23.888 23.1415 25.5565 25.5044 26.9868L25.4579 27.0329C23.0254 25.522 20.4385 23.9719 14.3765 26.4528L14.3324 26.4125Z" fill="url(#paint10_linear_1_5)"/>
<path opacity="0.33" d="M14.076 26.0885C20.1647 23.564 22.978 24.8609 25.7346 26.705L25.7109 26.7763C22.8159 24.8978 20.1821 23.6484 14.1201 26.1283L14.076 26.0885Z" fill="url(#paint11_linear_1_5)"/>
<path d="M14.0494 26.1695L14.0141 26.1608C14.0272 26.1181 14.0586 26.1011 14.0683 26.0987L14.0727 26.0972C14.0727 26.0972 14.0668 26.1181 14.0494 26.1695Z" fill="url(#paint12_radial_1_5)"/>
<path opacity="0.5" d="M22.5754 37.3589C19.9378 35.5808 17.2043 34.2228 11.1887 36.6716C11.1486 36.6479 11.0837 36.5873 11.0997 36.5111C17.2072 33.9046 20.0452 35.4281 22.6828 37.2057C22.6557 37.3022 22.6059 37.3347 22.5754 37.3589Z" fill="url(#paint13_radial_1_5)"/>
<path d="M27.3007 27.7875C29.9364 29.5651 32.6322 30.8689 38.8272 28.7454L35.9356 38.8295C29.8552 41.3506 26.9354 39.9232 24.3026 38.1335L27.3007 27.7875Z" fill="url(#paint14_radial_1_5)"/>
<path d="M36.4489 39.1874C36.4218 39.2432 36.3676 39.2752 36.3502 39.2854C36.3453 39.2854 36.342 39.2878 36.342 39.2878C36.342 39.2878 36.2916 39.2927 36.2467 39.2582C36.3661 39.1923 36.4 39.0618 36.4 39.0618C36.4 39.0618 36.4697 39.1205 36.4489 39.1874Z" fill="url(#paint15_linear_1_5)"/>
<path d="M36.4489 39.1874C36.4595 39.1302 36.3952 39.0768 36.3952 39.0768L39.2781 29.0049C39.2781 29.0049 39.3246 29.0461 39.3386 29.0786L36.4489 39.1874Z" fill="url(#paint16_linear_1_5)"/>
<path d="M39.3377 29.0835C39.3377 29.0835 39.3289 29.0525 39.2772 29.0112C39.3004 28.9133 39.283 28.8914 39.283 28.8914L39.2902 28.8963C39.2902 28.8958 39.3643 28.9661 39.3377 29.0835Z" fill="url(#paint17_linear_1_5)"/>
<path d="M39.0498 28.8395C39.0498 28.8395 38.9714 28.7435 38.8084 28.7716C38.8166 28.7352 38.8301 28.6911 38.8824 28.6702C38.9801 28.6552 39.0266 28.6795 39.0479 28.7018C39.0599 28.7124 39.0633 28.7221 39.0633 28.7221C39.0774 28.7794 39.0498 28.8395 39.0498 28.8395Z" fill="url(#paint18_linear_1_5)"/>
<path d="M39.0479 28.7023L39.2902 28.8958C39.3023 28.9598 39.2772 29.0258 39.2772 29.0258L39.0387 28.8342C39.0387 28.8342 39.0619 28.76 39.0479 28.7023Z" fill="url(#paint19_linear_1_5)"/>
<path opacity="0.66" d="M36.1373 38.894L39.0367 28.8167L39.2801 29.0127L36.402 39.087L36.3894 39.1123L36.1373 38.894Z" fill="#B37E00"/>
<path d="M38.8185 28.7818C32.7125 30.8694 29.9171 29.6287 27.2823 27.8486C27.2876 27.8288 27.2997 27.7837 27.2717 27.7376C29.9069 29.5166 32.8218 30.7287 38.8829 28.6708C38.8355 28.7023 38.8306 28.7455 38.8185 28.7818Z" fill="url(#paint20_linear_1_5)"/>
<path d="M26.8093 27.9733L27.012 27.8355L24.0763 38.0956L23.8475 38.278V38.2538L26.8093 27.9733Z" fill="#D9A200"/>
<path opacity="0.66" d="M35.9056 38.8377L38.8084 28.7687C38.8132 28.7687 38.8185 28.76 38.8258 28.7595C38.9772 28.745 39.0498 28.824 39.0498 28.824L36.1576 38.8799C36.1576 38.8799 36.0362 38.7839 35.9056 38.8377Z" fill="url(#paint21_linear_1_5)"/>
<path d="M36.3507 39.2854C30.3878 41.84 26.5644 40.2681 23.9296 38.4905L23.9572 38.4652C26.59 40.2433 30.6472 41.7251 36.2462 39.2456C36.2917 39.284 36.3507 39.2854 36.3507 39.2854Z" fill="#A85D10"/>
<path opacity="0.66" d="M36.1552 38.8765L36.402 39.087C36.402 39.087 36.3691 39.2044 36.2365 39.2611L35.9859 39.055C36.118 38.9983 36.1552 38.8765 36.1552 38.8765Z" fill="url(#paint22_linear_1_5)"/>
<path d="M35.9104 38.8242C35.8872 38.9798 36.0357 39.0759 36.0357 39.0759C29.7168 41.3676 27.009 39.9989 24.202 38.3032C24.247 38.2674 24.2721 38.2407 24.2992 38.132C24.3045 38.134 24.3403 38.1277 24.3466 38.132C27.0607 39.8068 30.1972 41.1944 35.9104 38.8242Z" fill="url(#paint23_linear_1_5)"/>
<path d="M23.9581 38.4788L24.202 38.3028C26.6166 39.8117 29.9984 41.4627 36.0014 39.0473L36.2481 39.2563C30.6704 41.7357 26.5915 40.2555 23.9581 38.4788Z" fill="#C67C0C"/>
<path d="M23.9789 38.4861L23.9509 38.506C23.9509 38.506 23.7927 38.4177 23.8478 38.2542C23.8614 38.4143 23.9789 38.4861 23.9789 38.4861Z" fill="#DE980D"/>
<path d="M23.8475 38.2538L24.0763 38.0656C24.0638 38.2334 24.2258 38.296 24.2258 38.296L23.9747 38.4885C23.9747 38.4885 23.8349 38.4206 23.8475 38.2538Z" fill="url(#paint24_linear_1_5)"/>
<path d="M24.0602 38.0728C24.142 38.0413 24.2174 38.0782 24.3045 38.1286C24.2755 38.2368 24.2552 38.2746 24.2107 38.3061C24.155 38.2751 24.0467 38.2106 24.0602 38.0728Z" fill="url(#paint25_linear_1_5)"/>
<path d="M27.052 27.7492L27.0075 27.8365L26.8038 27.983C26.8184 27.9146 26.9858 27.7933 27.0375 27.7579C27.0448 27.7521 27.052 27.7492 27.052 27.7492Z" fill="#DE980D"/>
<path d="M27.2799 27.8472C27.159 27.7783 27.0506 27.8137 27.0075 27.8365C27.0148 27.8137 27.0399 27.7555 27.0399 27.7555C27.1381 27.6939 27.1817 27.6939 27.2717 27.7376C27.2973 27.7827 27.2872 27.8215 27.2799 27.8472Z" fill="url(#paint26_radial_1_5)"/>
<path d="M24.3268 38.1461C24.2402 38.0952 24.1415 38.0569 24.0578 38.0903L27.0119 27.8356C27.0574 27.8142 27.1619 27.7774 27.2823 27.8487L24.3268 38.1461Z" fill="url(#paint27_linear_1_5)"/>
<path opacity="0.33" d="M26.8609 27.9049C27.7627 28.6892 31.6786 31.8985 39.2902 28.8958L39.0479 28.7022C39.027 28.6799 38.9806 28.6552 38.8829 28.6707C32.8218 30.7287 29.9069 29.5166 27.2717 27.7375C27.2717 27.74 27.2717 27.74 27.2717 27.74C27.1831 27.6949 27.1391 27.6949 27.0419 27.7579C26.92 27.8423 26.92 27.8413 26.8609 27.9049Z" fill="url(#paint28_linear_1_5)"/>
<path opacity="0.33" d="M39.2902 28.8958C31.6786 31.8986 27.7623 28.6892 26.8609 27.9049C26.8372 27.9267 26.8188 27.951 26.8101 27.9709V27.9733L26.8072 27.9811C26.8072 27.9815 26.8063 27.983 26.8063 27.983H26.8072L26.8058 27.9878C27.592 28.6775 31.5253 32.1144 39.3401 29.0069C39.3314 28.938 39.2902 28.8958 39.2902 28.8958Z" fill="url(#paint29_linear_1_5)"/>
<path d="M36.0018 39.0482C36.0018 39.0482 35.8896 38.9798 35.9109 38.8241C36.0647 38.7829 36.1591 38.8799 36.1591 38.8799C36.1591 38.8799 36.1344 38.991 36.0018 39.0482Z" fill="url(#paint30_linear_1_5)"/>
<path d="M26.216 24.891C24.6296 23.8196 22.9223 22.818 20.497 22.8001C18.8976 22.7875 16.9924 23.2439 14.5739 24.2449L17.57 13.8355C23.6533 11.3134 26.5764 12.7432 29.2117 14.53L26.216 24.891Z" fill="url(#paint31_radial_1_5)"/>
<path d="M26.2126 24.8881L29.2107 14.5305C29.2436 14.5513 29.2572 14.5688 29.2736 14.5892L26.2775 24.9618C26.2605 24.9182 26.2126 24.8881 26.2126 24.8881Z" fill="#BC1B00"/>
<path d="M14.8617 24.5471C15.8216 24.1528 16.7084 23.8603 17.5323 23.659C17.7331 23.6096 17.9106 23.5679 18.1225 23.5266C18.316 23.4869 18.5081 23.4495 18.6949 23.4214C18.9876 23.3782 19.2725 23.3404 19.5522 23.3181C19.7882 23.2992 20.019 23.2861 20.245 23.2841C20.4631 23.2822 20.6784 23.2841 20.8874 23.2953C21.0722 23.3059 21.2537 23.3205 21.4332 23.3414C21.5846 23.3583 21.7322 23.3782 21.8792 23.403C22.1874 23.4558 22.4864 23.5218 22.7747 23.6033C23.9407 23.934 24.976 24.4976 25.9282 25.1325C25.9204 25.1369 25.8977 25.1262 25.889 25.1214C25.8798 25.117 25.8754 25.117 25.8662 25.1117C24.5798 24.2944 23.199 23.5814 21.4927 23.3714C19.7486 23.1575 17.7118 23.4587 14.9706 24.5476C14.9706 24.5476 14.9091 24.5762 14.883 24.5791C14.8617 24.5854 14.8665 24.5685 14.8617 24.5471Z" fill="#BC1B00"/>
<path d="M26.1096 25.0404C26.1096 25.0404 26.1488 25.068 26.1947 25.0583L26.007 25.1432C25.9557 25.1568 25.8948 25.1257 25.8948 25.1257L26.1096 25.0404Z" fill="#BC1B00"/>
<path d="M14.8627 24.5486C14.8627 24.5486 14.8753 24.5694 14.883 24.582C14.8666 24.5845 14.8622 24.5888 14.8172 24.5685C14.8104 24.5665 14.8027 24.5592 14.7945 24.5525L14.5995 24.4002L14.5811 24.3856C14.6072 24.3842 14.6266 24.3958 14.6401 24.3943L14.8627 24.5486Z" fill="#B81A00"/>
<path d="M26.216 24.89C26.2363 24.9031 26.2615 24.9109 26.2794 24.9536C26.2663 25.0108 26.2199 25.0389 26.1943 25.0578C26.1473 25.0709 26.1028 25.036 26.1028 25.036C26.1323 25.0142 26.1855 24.9768 26.216 24.89Z" fill="#E82E00"/>
<path d="M29.2286 14.4592L29.232 14.4602C29.2707 14.4873 29.2848 14.5378 29.2732 14.5882L29.2707 14.5926C29.2553 14.5741 29.2436 14.5547 29.2103 14.5295L29.2286 14.4592Z" fill="#F83603"/>
<path d="M14.585 24.3919C14.5555 24.3706 14.5279 24.2818 14.5443 24.2294L14.583 24.2173C14.5676 24.2925 14.6135 24.3798 14.6551 24.404C14.6556 24.404 14.6266 24.421 14.585 24.3919Z" fill="#E32E00"/>
<path d="M17.571 13.8374L17.5424 13.8301C17.5541 13.784 17.5855 13.77 17.5971 13.7666L17.601 13.7656C17.601 13.7651 17.587 13.787 17.571 13.8374Z" fill="url(#paint32_linear_1_5)"/>
<path d="M26.1154 25.0423C23.2798 23.0702 19.8071 21.8325 14.6493 24.4016L14.8603 24.551C20.497 22.2423 23.4346 23.4898 25.9088 25.1253L26.1154 25.0423Z" fill="#E82E00"/>
<path d="M26.1096 25.0404C24.4859 23.9782 22.9688 23.0974 20.5623 23.0285C18.8061 23.0639 17.4568 23.289 14.6546 24.404C14.613 24.3812 14.5603 24.3221 14.5739 24.2454C17.002 23.2094 18.9285 22.7608 20.5275 22.7768C22.9513 22.8006 24.6296 23.8181 26.216 24.8876C26.1889 24.9827 26.1372 25.0181 26.1096 25.0404Z" fill="#E82E00"/>
<path d="M17.5424 13.8292L17.57 13.8374L14.5806 24.2406C14.5738 24.2357 14.5438 24.229 14.5438 24.229L17.5424 13.8292Z" fill="#E32E00"/>
<path opacity="0.66" d="M29.2117 14.5305C26.5745 12.7417 23.6262 11.358 17.5715 13.8374C17.5841 13.7845 17.5971 13.7666 17.5971 13.7666C23.6814 11.2445 26.5943 12.6704 29.2286 14.4592L29.2117 14.5305Z" fill="url(#paint33_linear_1_5)"/>
<path opacity="0.33" d="M28.8634 14.8734C26.7153 13.4751 23.8759 11.7237 17.8211 14.2026C17.8347 14.1507 17.8501 14.1236 17.8501 14.1236C23.9334 11.6019 26.8009 13.5231 28.8851 14.7977L28.8634 14.8734Z" fill="#FE8411"/>
<path opacity="0.36" d="M17.6702 13.9063C17.6532 13.9131 17.5947 13.9048 17.5947 13.9048L14.571 24.4031L14.7945 24.5534C14.8022 24.5602 14.8104 24.567 14.8172 24.5694C14.8554 24.5864 14.8632 24.5864 14.8753 24.584L17.8376 14.1575L17.8468 14.1265L17.6702 13.9063Z" fill="url(#paint34_linear_1_5)"/>
<path opacity="0.5" d="M28.8784 14.806C28.8792 14.8074 28.8801 14.8079 28.8813 14.8098C28.8813 14.806 28.8818 14.805 28.8818 14.8031L28.8784 14.806Z" fill="url(#paint35_linear_1_5)"/>
<path opacity="0.5" d="M28.9519 14.5674C27.9519 13.8956 26.2871 12.8053 23.8522 12.6346C21.2692 12.4527 17.9963 13.7705 17.6702 13.9063L17.8463 14.126L17.8371 14.157C17.8463 14.1551 17.855 14.1498 17.8637 14.1464C23.8947 11.5462 27.6094 13.8941 28.8784 14.806L28.8827 14.8031L29.0724 14.6474C29.0337 14.6217 28.9935 14.5945 28.9519 14.5674Z" fill="url(#paint36_linear_1_5)"/>
<path opacity="0.5" d="M17.6702 13.9063C17.9967 13.7705 21.2692 12.4527 23.8522 12.6345C26.2871 12.8053 27.9519 13.8961 28.9519 14.5673C28.993 14.595 29.0332 14.6217 29.0714 14.6474L29.2586 14.4965C29.2504 14.4839 29.2451 14.4694 29.2315 14.4606C26.6548 12.7107 23.8077 11.3095 17.9934 13.6065C17.8632 13.6594 17.7331 13.7098 17.6005 13.7656L17.6702 13.9063Z" fill="#FFF4C5"/>
<path opacity="0.6" d="M29.2286 14.4631L29.2117 14.5305L29.0714 14.6474L28.8822 14.8031C28.8822 14.8045 28.8818 14.806 28.8818 14.8099C28.2538 16.9692 26.291 23.7105 25.8749 25.1156C25.8798 25.1175 25.8832 25.1185 25.8885 25.1224C25.8899 25.1233 25.8933 25.1253 25.8948 25.1257C25.8948 25.1257 25.9557 25.1568 26.007 25.1432L26.1947 25.0583C26.1942 25.0593 26.1928 25.0583 26.1894 25.0593C26.1913 25.0583 26.1928 25.0593 26.1938 25.0583C26.2175 25.0389 26.2634 25.0113 26.2765 24.9613L26.277 24.9579C26.277 24.9565 26.2784 24.9565 26.2784 24.9545L29.1512 15.0078L29.2224 14.7628L29.2248 14.7526L29.2727 14.5897C29.2823 14.5547 29.2761 14.4844 29.2286 14.4631Z" fill="url(#paint37_linear_1_5)"/>
<path opacity="0.5" d="M26.1159 25.0351C24.4932 23.9729 22.975 23.0916 20.5701 23.0222C18.8129 23.0581 17.4641 23.2827 14.6619 24.3977C14.6189 24.3759 14.5676 24.3167 14.5811 24.2406C17.0093 23.2036 18.9358 22.755 20.5357 22.7715C22.9586 22.7967 24.6374 23.8118 26.2233 24.8823C26.1957 24.9768 26.1439 25.0132 26.1159 25.0351Z" fill="url(#paint38_linear_1_5)"/>
<path d="M29.2286 14.4592L29.232 14.4611C29.2707 14.4873 29.2848 14.5378 29.2732 14.5882L29.2707 14.5926C29.2553 14.5741 29.2436 14.5557 29.2103 14.5295L29.2286 14.4592Z" fill="#F83603"/>
<path d="M17.571 13.8374L17.5429 13.8301C17.555 13.7855 17.586 13.7705 17.5971 13.7666L17.6015 13.7656C17.6015 13.7656 17.587 13.787 17.571 13.8374Z" fill="url(#paint39_linear_1_5)"/>
<path opacity="0.66" d="M29.2117 14.5305C26.576 12.7417 23.6262 11.3589 17.571 13.8379C17.5841 13.7865 17.5971 13.7671 17.5971 13.7671C23.6814 11.245 26.5944 12.6709 29.2286 14.4597L29.2117 14.5305Z" fill="url(#paint40_linear_1_5)"/>
<path d="M42.417 16.296C36.342 18.8127 33.4232 17.3974 30.7933 15.6213L27.7961 26.04C30.4241 27.8263 33.5998 29.2911 39.4242 26.6788L42.417 16.296Z" fill="url(#paint41_radial_1_5)"/>
<path d="M42.4044 16.3037C36.3299 18.82 33.4222 17.4042 30.7923 15.63C30.7986 15.6067 30.8082 15.5621 30.7923 15.518C33.4222 17.2932 36.4019 18.723 42.4731 16.2053C42.4233 16.2339 42.4194 16.2688 42.4044 16.3037Z" fill="url(#paint42_linear_1_5)"/>
<path d="M27.578 25.926L27.3497 26.1084V26.0851L30.327 15.7547L30.5452 15.599L27.578 25.926Z" fill="#8CAC42"/>
<path d="M27.8024 26.0439C27.7115 25.991 27.6432 25.8863 27.561 25.9192L30.5344 15.6043C30.5804 15.5835 30.6946 15.5452 30.8039 15.63L27.8024 26.0439Z" fill="url(#paint43_linear_1_5)"/>
<path d="M30.5721 15.533L30.5422 15.6063L30.3254 15.7629C30.3448 15.6921 30.5117 15.5752 30.5601 15.5384C30.5702 15.534 30.5721 15.533 30.5721 15.533Z" fill="#5F821C"/>
<path d="M30.7937 15.6213C30.681 15.5529 30.578 15.5873 30.533 15.6067C30.5392 15.5839 30.5596 15.5383 30.5596 15.5383C30.6578 15.4772 30.6984 15.4748 30.7918 15.518C30.8039 15.5529 30.8082 15.5868 30.7937 15.6213Z" fill="url(#paint44_linear_1_5)"/>
<path opacity="0.81" d="M42.628 16.3542L42.8732 16.5491L39.8524 26.9256L39.6236 26.7263L42.628 16.3542Z" fill="url(#paint45_linear_1_5)"/>
<path d="M39.9114 27.0018C39.9187 26.9417 39.8572 26.8941 39.8572 26.8941L42.8689 16.5394C42.8689 16.5394 42.9178 16.5821 42.9299 16.6122L39.9114 27.0018Z" fill="#476E32"/>
<path d="M39.8108 27.0978C38.1876 27.8375 36.653 28.2192 35.2268 28.3429C32.7633 28.6208 30.7705 28.0858 29.1445 27.2841C28.5107 26.9926 27.9393 26.6628 27.4313 26.3199L27.4594 26.299C27.9741 26.6439 28.5329 26.9834 29.1445 27.2841C30.7981 28.0451 32.8615 28.5471 35.2268 28.3429C36.5732 28.1886 38.0619 27.79 39.7063 27.0605C39.7527 27.0954 39.8108 27.0978 39.8108 27.0978Z" fill="#1D3419"/>
<path d="M39.4823 26.9048C39.4823 26.9048 39.3676 26.801 39.387 26.6497C39.5462 26.608 39.6463 26.7064 39.6463 26.7064C39.6463 26.7064 39.6149 26.8476 39.4823 26.9048Z" fill="url(#paint46_linear_1_5)"/>
<path d="M39.6463 26.7064L39.8611 26.899C39.8611 26.899 39.8287 27.0183 39.6981 27.0755L39.4731 26.8839C39.6071 26.8272 39.6463 26.7064 39.6463 26.7064Z" fill="url(#paint47_linear_1_5)"/>
<path d="M39.4242 26.6443C39.4029 26.7966 39.5152 26.9087 39.5152 26.9087C33.4435 29.4264 30.3152 27.9466 27.6843 26.1593C27.7308 26.1273 27.7371 26.1273 27.7676 26.0182C30.3965 27.804 34.3705 29.0549 39.4242 26.6443Z" fill="url(#paint48_linear_1_5)"/>
<path d="M27.4594 26.3092L27.6858 26.1584C30.3162 27.8564 33.4232 29.3241 39.491 26.8791L39.7087 27.0702C33.8842 29.6466 30.159 28.2134 27.4594 26.3092Z" fill="#26551B"/>
<path d="M39.9114 27.0018C39.8834 27.0576 39.8292 27.0901 39.8108 27.0978C39.8069 27.1002 39.8045 27.1002 39.8045 27.1002C39.8045 27.1002 39.7644 27.108 39.7068 27.0697C39.8277 27.0062 39.8611 26.8728 39.8611 26.8728C39.8611 26.8728 39.9298 26.9339 39.9114 27.0018Z" fill="#5F821C"/>
<path d="M27.4686 26.3068L27.442 26.3281C27.442 26.3281 27.2954 26.2471 27.3505 26.0851C27.3641 26.2466 27.4686 26.3068 27.4686 26.3068Z" fill="#26551B"/>
<path d="M27.3497 26.0851L27.5689 25.912C27.5553 26.0793 27.698 26.1472 27.698 26.1472L27.4764 26.3194C27.4764 26.3203 27.3381 26.251 27.3497 26.0851Z" fill="url(#paint49_linear_1_5)"/>
<path d="M27.5639 25.912C27.6394 25.8872 27.7056 25.9673 27.7966 26.04C27.7661 26.1467 27.7414 26.1278 27.695 26.1603C27.6413 26.1307 27.5489 26.0497 27.5639 25.912Z" fill="url(#paint50_linear_1_5)"/>
<path opacity="0.72" d="M42.8931 16.442C42.896 16.4803 42.8674 16.5448 42.8674 16.5448L42.6342 16.3566C42.6342 16.3566 42.6681 16.2795 42.6512 16.2213C42.7296 16.2542 42.88 16.4192 42.8931 16.442Z" fill="url(#paint51_linear_1_5)"/>
<path opacity="0.33" d="M42.8882 16.4322C42.8428 16.3707 42.7731 16.3158 42.7184 16.2659C42.6159 16.1718 42.4881 16.1922 42.4581 16.2101L42.4567 16.2135C36.3981 18.7211 33.4212 17.2912 30.7928 15.5175C30.6999 15.4748 30.6587 15.4768 30.5605 15.5379C30.5228 15.5645 30.4251 15.6373 30.3685 15.6994C31.3791 16.553 35.6762 19.9283 42.8882 16.4322ZM30.7937 15.6213L30.7923 15.6232C30.7923 15.6213 30.7918 15.6213 30.7908 15.6208C30.7918 15.6213 30.7923 15.6213 30.7937 15.6213C30.8 15.6072 30.8 15.5941 30.801 15.5806C30.8 15.597 30.7981 15.6111 30.7937 15.6213Z" fill="url(#paint52_linear_1_5)"/>
<path opacity="0.72" d="M39.3962 26.6681L42.3996 16.3008C42.5636 16.2703 42.642 16.3639 42.642 16.3639L39.6463 26.7054C39.6463 26.7064 39.5234 26.6138 39.3962 26.6681Z" fill="url(#paint53_linear_1_5)"/>
<path opacity="0.6" d="M42.4044 16.3037C42.4132 16.2639 42.4185 16.2465 42.4577 16.2101C42.4881 16.1922 42.6154 16.1718 42.718 16.2659C42.8205 16.3585 42.9782 16.4662 42.9299 16.6122C42.9173 16.5821 42.8713 16.5443 42.8713 16.5443L42.642 16.3634C42.642 16.3634 42.568 16.2746 42.4044 16.3037Z" fill="url(#paint54_linear_1_5)"/>
<path opacity="0.3" d="M30.368 15.6999C30.3525 15.7188 30.3375 15.7353 30.3302 15.7518L30.3278 15.7547L30.3172 15.7901C31.2321 16.5661 35.5698 20.1373 42.9361 16.5424C42.9318 16.5021 42.9144 16.4652 42.8887 16.4318C35.6762 19.9283 31.3791 16.553 30.368 15.6999Z" fill="url(#paint55_linear_1_5)"/>
<path opacity="0.72" d="M42.8931 16.4424C42.896 16.4803 42.8674 16.5443 42.8674 16.5443L42.6347 16.3561C42.6347 16.3561 42.6686 16.2795 42.6531 16.2208C42.7296 16.2547 42.88 16.4201 42.8931 16.4424Z" fill="url(#paint56_linear_1_5)"/>
<path opacity="0.6" d="M42.4044 16.3037C42.4132 16.2639 42.4185 16.2465 42.4586 16.2101C42.4886 16.1922 42.6164 16.1718 42.718 16.2669C42.8205 16.359 42.9787 16.4657 42.9303 16.6127C42.9168 16.5821 42.8713 16.5448 42.8713 16.5448L42.642 16.3629C42.6425 16.3634 42.568 16.2746 42.4044 16.3037Z" fill="url(#paint57_linear_1_5)"/>
<path d="M5.40435 20.3501C7.30418 14.0527 11.521 9.1629 17.372 6.47259C27.934 1.61609 40.2385 5.48649 46.1714 15.5315C46.8986 16.7627 48.1389 19.7197 48.3527 20.7318L48.4837 21.352H26.7929H5.1021L5.40435 20.3501Z" fill="url(#paint58_linear_1_5)"/>
<path d="M26.114 49.8246C20.3492 49.5876 14.8125 47.0791 10.7431 42.9902C7.09219 39.3218 4.80263 34.6211 4.06704 29.2835C3.90101 28.0788 3.90194 24.9486 4.0687 23.7086C4.67323 19.2133 6.37499 15.166 9.10564 11.729C9.85431 10.7866 11.5348 9.09483 12.4611 8.35096C16.0346 5.48126 20.0475 3.76509 24.7282 3.20025C25.7542 3.07643 28.5081 3.0964 29.6115 3.23567C38.2315 4.32359 45.3299 9.72788 48.5411 17.6475C51.5491 25.0661 50.615 33.2602 45.9966 39.9673C44.6373 41.9412 42.5129 44.0767 40.4913 45.5013C37.4222 47.664 33.921 49.0674 30.262 49.6015C29.3591 49.7333 27.3797 49.8803 26.8399 49.8556C26.6947 49.8489 26.368 49.835 26.114 49.8246ZM28.0116 48.4821C31.2085 48.2897 33.9264 47.5314 36.7516 46.1555C38.0192 45.5382 38.6191 45.1978 39.6969 44.4594C43.6882 41.7252 46.5547 37.7292 48.101 33.0016C50.6171 25.3088 48.5513 17.0475 42.8326 11.1674C39.1785 7.41016 34.762 5.14996 29.2818 4.47751C28.2079 4.34573 25.2584 4.38264 24.1676 4.52958C23.0002 4.68684 21.9109 4.92061 20.9558 5.19727C16.0492 6.61858 11.9327 9.40326 9.00595 13.383C7.01254 16.0935 5.55742 19.481 5.01112 22.7304C4.71119 24.5145 4.68349 26.8572 4.84471 28.4701C5.35519 33.5772 7.63429 38.4368 11.2837 42.0512C15.2098 45.9397 20.374 48.2424 25.982 48.4729C26.2361 48.4833 26.5709 48.5057 26.7161 48.5125C26.8613 48.5192 27.3946 48.5192 28.0116 48.4821Z" fill="url(#paint59_linear_1_5)"/>
</g>
<defs>
<filter id="filter0_f_1_5" x="-80.3186" y="-67.2786" width="199.132" height="192.266" filterUnits="userSpaceOnUse" color-interpolation-filters="sRGB">
<feFlood flood-opacity="0" result="BackgroundImageFix"/>
<feBlend mode="normal" in="SourceGraphic" in2="BackgroundImageFix" result="shape"/>
<feGaussianBlur stdDeviation="45.9918" result="effect1_foregroundBlur_1_5"/>
</filter>
<filter id="filter1_f_1_5" x="-70.2976" y="-68.351" width="206.069" height="198.483" filterUnits="userSpaceOnUse" color-interpolation-filters="sRGB">
<feFlood flood-opacity="0" result="BackgroundImageFix"/>
<feBlend mode="normal" in="SourceGraphic" in2="BackgroundImageFix" result="shape"/>
<feGaussianBlur stdDeviation="47.5254" result="effect1_foregroundBlur_1_5"/>
</filter>
<filter id="filter2_f_1_5" x="-67.2034" y="-76.9992" width="207.159" height="199.512" filterUnits="userSpaceOnUse" color-interpolation-filters="sRGB">
<feFlood flood-opacity="0" result="BackgroundImageFix"/>
<feBlend mode="normal" in="SourceGraphic" in2="BackgroundImageFix" result="shape"/>
<feGaussianBlur stdDeviation="47.7737" result="effect1_foregroundBlur_1_5"/>
</filter>
<filter id="filter3_f_1_5" x="-76.6472" y="-75.3113" width="198.847" height="191.939" filterUnits="userSpaceOnUse" color-interpolation-filters="sRGB">
<feFlood flood-opacity="0" result="BackgroundImageFix"/>
<feBlend mode="normal" in="SourceGraphic" in2="BackgroundImageFix" result="shape"/>
<feGaussianBlur stdDeviation="45.9186" result="effect1_foregroundBlur_1_5"/>
</filter>
<radialGradient id="paint0_radial_1_5" cx="0" cy="0" r="1" gradientTransform="matrix(25.936 0.526052 -0.334621 16.3619 27.322 46.6768)" gradientUnits="userSpaceOnUse">
<stop stop-color="#5AA7CC"/>
<stop offset="0.0867045" stop-color="#5DA9CD"/>
<stop offset="0.329687" stop-color="#23A4E7"/>
<stop offset="0.562268" stop-color="#056AC2"/>
<stop offset="1" stop-color="#1D3961"/>
</radialGradient>
<radialGradient id="paint1_radial_1_5" cx="0" cy="0" r="1" gradientUnits="userSpaceOnUse" gradientTransform="translate(26.5151 26.5686) scale(15.9937 16.034)">
<stop offset="0.0011" stop-color="#D1E7EE"/>
<stop offset="0.0979" stop-color="#CDE4EC"/>
<stop offset="0.203" stop-color="#C0DCE8"/>
<stop offset="0.2985" stop-color="#ADD0E1"/>
<stop offset="0.6504" stop-color="#3982B1"/>
<stop offset="0.7203" stop-color="#3474AA"/>
<stop offset="0.899" stop-color="#285699"/>
<stop offset="1" stop-color="#244B93"/>
</radialGradient>
<radialGradient id="paint2_radial_1_5" cx="0" cy="0" r="1" gradientUnits="userSpaceOnUse" gradientTransform="translate(26.5063 26.5814) scale(16.0911 15.939)">
<stop offset="0.0036" stop-color="#D8EEED"/>
<stop offset="0.1733" stop-color="#98D8D7"/>
<stop offset="0.2237" stop-color="#8ED3D3"/>
<stop offset="0.3088" stop-color="#74C6CA"/>
<stop offset="0.4176" stop-color="#49B1BA"/>
<stop offset="0.4477" stop-color="#3CAAB5"/>
<stop offset="0.56" stop-color="#2E81A4"/>
<stop offset="0.6836" stop-color="#215B94"/>
<stop offset="0.783" stop-color="#19448B"/>
<stop offset="0.8448" stop-color="#163B87"/>
<stop offset="1" stop-color="#0B317D"/>
</radialGradient>
<radialGradient id="paint3_radial_1_5" cx="0" cy="0" r="1" gradientUnits="userSpaceOnUse" gradientTransform="translate(26.5046 26.5387) scale(16.0511 16.0919)">
<stop offset="0.0036" stop-color="#D8EEED"/>
<stop offset="0.1733" stop-color="#98D8D7"/>
<stop offset="0.2237" stop-color="#8ED3D3"/>
<stop offset="0.3088" stop-color="#74C6CA"/>
<stop offset="0.4176" stop-color="#49B1BA"/>
<stop offset="0.4477" stop-color="#3CAAB5"/>
<stop offset="0.56" stop-color="#2E81A4"/>
<stop offset="0.6836" stop-color="#215B94"/>
<stop offset="0.783" stop-color="#19448B"/>
<stop offset="0.8448" stop-color="#163B87"/>
<stop offset="1" stop-color="#152469"/>
</radialGradient>
<radialGradient id="paint4_radial_1_5" cx="0" cy="0" r="1" gradientUnits="userSpaceOnUse" gradientTransform="translate(26.5166 26.5256) scale(16.0584 16.0989)">
<stop offset="0.0036" stop-color="#D8EEED"/>
<stop offset="0.1733" stop-color="#98D8D7"/>
<stop offset="0.2237" stop-color="#8ED3D3"/>
<stop offset="0.3088" stop-color="#74C6CA"/>
<stop offset="0.4176" stop-color="#49B1BA"/>
<stop offset="0.4477" stop-color="#3CAAB5"/>
<stop offset="0.56" stop-color="#2E81A4"/>
<stop offset="0.6836" stop-color="#215B94"/>
<stop offset="0.783" stop-color="#19448B"/>
<stop offset="0.8448" stop-color="#163B87"/>
<stop offset="1" stop-color="#0B317D"/>
</radialGradient>
<linearGradient id="paint5_linear_1_5" x1="25.6293" y1="27.0715" x2="23.116" y2="35.8897" gradientUnits="userSpaceOnUse">
<stop stop-color="#98D8D7"/>
<stop offset="1" stop-color="#152469"/>
</linearGradient>
<radialGradient id="paint6_radial_1_5" cx="0" cy="0" r="1" gradientUnits="userSpaceOnUse" gradientTransform="translate(26.5203 26.5196) scale(16.115 16.156)">
<stop offset="0.0036" stop-color="#D8EEED"/>
<stop offset="0.1733" stop-color="#98D8D7"/>
<stop offset="0.2237" stop-color="#8ED3D3"/>
<stop offset="0.3088" stop-color="#74C6CA"/>
<stop offset="0.4176" stop-color="#49B1BA"/>
<stop offset="0.4477" stop-color="#3CAAB5"/>
<stop offset="0.56" stop-color="#2E81A4"/>
<stop offset="0.6836" stop-color="#215B94"/>
<stop offset="0.783" stop-color="#19448B"/>
<stop offset="0.8448" stop-color="#163B87"/>
<stop offset="1" stop-color="#152469"/>
</radialGradient>
<linearGradient id="paint7_linear_1_5" x1="11.0543" y1="31.5079" x2="14.3755" y2="31.5079" gradientUnits="userSpaceOnUse">
<stop stop-color="#DEF3F1"/>
<stop offset="1" stop-color="#5085BC"/>
</linearGradient>
<linearGradient id="paint8_linear_1_5" x1="22.4007" y1="32.122" x2="25.7809" y2="32.122" gradientUnits="userSpaceOnUse">
<stop stop-color="#DEF3F1"/>
<stop offset="1" stop-color="#5085BC"/>
</linearGradient>
<linearGradient id="paint9_linear_1_5" x1="14.0495" y1="25.8686" x2="25.7351" y2="25.8686" gradientUnits="userSpaceOnUse">
<stop stop-color="#094992"/>
<stop offset="0.6685" stop-color="#8BCDE2"/>
<stop offset="1" stop-color="#E6F6F9"/>
</linearGradient>
<linearGradient id="paint10_linear_1_5" x1="14.3322" y1="26.0701" x2="25.5046" y2="26.0701" gradientUnits="userSpaceOnUse">
<stop offset="0.0056" stop-color="#BBC7E1"/>
<stop offset="0.2247" stop-color="#7090C3"/>
<stop offset="0.5449" stop-color="#C8EAEF"/>
<stop offset="1" stop-color="white"/>
</linearGradient>
<linearGradient id="paint11_linear_1_5" x1="14.0762" y1="25.73" x2="25.7351" y2="25.73" gradientUnits="userSpaceOnUse">
<stop offset="0.0056" stop-color="#7090C3"/>
<stop offset="0.5449" stop-color="#C1E7ED"/>
<stop offset="1" stop-color="white"/>
</linearGradient>
<radialGradient id="paint12_radial_1_5" cx="0" cy="0" r="1" gradientUnits="userSpaceOnUse" gradientTransform="translate(14.0405 26.1293) scale(0.0394279 0.0395286)">
<stop stop-color="#7E9EC4"/>
<stop offset="1" stop-color="#0A50A1"/>
</radialGradient>
<radialGradient id="paint13_radial_1_5" cx="0" cy="0" r="1" gradientUnits="userSpaceOnUse" gradientTransform="translate(6.34645 36.1054) scale(19.7278 19.7775)">
<stop offset="0.0036" stop-color="#D8EEED"/>
<stop offset="0.1733" stop-color="#98D8D7"/>
<stop offset="0.2237" stop-color="#8ED3D3"/>
<stop offset="0.3088" stop-color="#74C6CA"/>
<stop offset="0.4176" stop-color="#49B1BA"/>
<stop offset="0.4477" stop-color="#3CAAB5"/>
<stop offset="0.4987" stop-color="#369FB5"/>
<stop offset="0.6306" stop-color="#2A88B4"/>
<stop offset="0.7129" stop-color="#257FB4"/>
<stop offset="1" stop-color="#4161AB"/>
</radialGradient>
<radialGradient id="paint14_radial_1_5" cx="0" cy="0" r="1" gradientUnits="userSpaceOnUse" gradientTransform="translate(26.5014 26.921) scale(14.8898 14.9274)">
<stop stop-color="#FCF5B0"/>
<stop offset="0.1657" stop-color="#F7EDA0"/>
<stop offset="0.2849" stop-color="#F3E591"/>
<stop offset="0.65" stop-color="#FCD118"/>
<stop offset="0.8024" stop-color="#F7A50C"/>
<stop offset="0.9288" stop-color="#F38603"/>
<stop offset="1" stop-color="#F27B00"/>
</radialGradient>
<linearGradient id="paint15_linear_1_5" x1="36.3915" y1="39.0598" x2="36.3292" y2="39.2914" gradientUnits="userSpaceOnUse">
<stop stop-color="#DE980D"/>
<stop offset="1" stop-color="#A85D10"/>
</linearGradient>
<linearGradient id="paint16_linear_1_5" x1="36.3952" y1="34.0964" x2="39.3391" y2="34.0964" gradientUnits="userSpaceOnUse">
<stop stop-color="#DEB150"/>
<stop offset="1" stop-color="#FFF8B3"/>
</linearGradient>
<linearGradient id="paint17_linear_1_5" x1="39.3098" y1="28.8914" x2="39.3098" y2="29.0838" gradientUnits="userSpaceOnUse">
<stop offset="0.0056" stop-color="#C67C0C"/>
<stop offset="1" stop-color="#DE980D"/>
</linearGradient>
<linearGradient id="paint18_linear_1_5" x1="38.8875" y1="28.666" x2="39.0076" y2="28.8653" gradientUnits="userSpaceOnUse">
<stop offset="0.0056" stop-color="#FED40F"/>
<stop offset="1" stop-color="#A85D10"/>
</linearGradient>
<linearGradient id="paint19_linear_1_5" x1="39.1998" y1="28.8194" x2="39.1257" y2="28.9075" gradientUnits="userSpaceOnUse">
<stop offset="0.0056" stop-color="#FED40F"/>
<stop offset="1" stop-color="#A85D10"/>
</linearGradient>
<linearGradient id="paint20_linear_1_5" x1="27.2715" y1="28.8055" x2="38.8827" y2="28.8055" gradientUnits="userSpaceOnUse">
<stop stop-color="#FFF8FB"/>
<stop offset="1" stop-color="#FEC236"/>
</linearGradient>
<linearGradient id="paint21_linear_1_5" x1="37.6109" y1="33.8562" x2="37.352" y2="33.7822" gradientUnits="userSpaceOnUse">
<stop stop-color="#B37E00"/>
<stop offset="1" stop-color="#FF9E00"/>
</linearGradient>
<linearGradient id="paint22_linear_1_5" x1="36.2601" y1="38.9236" x2="36.1304" y2="39.2141" gradientUnits="userSpaceOnUse">
<stop offset="0.0056" stop-color="#FFD100"/>
<stop offset="1" stop-color="#A8710A"/>
</linearGradient>
<linearGradient id="paint23_linear_1_5" x1="24.202" y1="39.208" x2="36.0357" y2="39.208" gradientUnits="userSpaceOnUse">
<stop stop-color="#DE980D"/>
<stop offset="0.4" stop-color="#FDDA10"/>
<stop offset="1" stop-color="#DE980D"/>
</linearGradient>
<linearGradient id="paint24_linear_1_5" x1="24.1194" y1="38.3922" x2="23.9286" y2="38.1808" gradientUnits="userSpaceOnUse">
<stop stop-color="#DE980D"/>
<stop offset="0.1" stop-color="#DE980D"/>
<stop offset="0.7" stop-color="#FDDA10"/>
<stop offset="1" stop-color="#DE980D"/>
</linearGradient>
<linearGradient id="paint25_linear_1_5" x1="24.1254" y1="38.037" x2="24.2601" y2="38.2792" gradientUnits="userSpaceOnUse">
<stop stop-color="#DE980D"/>
<stop offset="0.4" stop-color="#FEBF0F"/>
<stop offset="0.8" stop-color="#FED40F"/>
<stop offset="1" stop-color="#DE980D"/>
</linearGradient>
<radialGradient id="paint26_radial_1_5" cx="0" cy="0" r="1" gradientUnits="userSpaceOnUse" gradientTransform="translate(27.1213 27.7063) scale(0.146156 0.146526)">
<stop stop-color="#FEEB71"/>
<stop offset="1" stop-color="#DE980D"/>
</radialGradient>
<linearGradient id="paint27_linear_1_5" x1="25.8083" y1="33.0034" x2="25.5358" y2="32.9255" gradientUnits="userSpaceOnUse">
<stop offset="0.0056" stop-color="#FFEFBB"/>
<stop offset="1" stop-color="#FFBF00"/>
</linearGradient>
<linearGradient id="paint28_linear_1_5" x1="26.7027" y1="28.9314" x2="39.3162" y2="28.9314" gradientUnits="userSpaceOnUse">
<stop offset="0.0056" stop-color="#FCA859"/>
<stop offset="0.2135" stop-color="#FDC30F"/>
<stop offset="1" stop-color="#B51C00"/>
</linearGradient>
<linearGradient id="paint29_linear_1_5" x1="26.8048" y1="29.0961" x2="39.3392" y2="29.0961" gradientUnits="userSpaceOnUse">
<stop offset="0.0056" stop-color="#FFF6D8"/>
<stop offset="0.525" stop-color="#FDDA10"/>
<stop offset="1" stop-color="#F9BD0C"/>
</linearGradient>
<linearGradient id="paint30_linear_1_5" x1="36.0546" y1="38.9425" x2="35.8791" y2="38.7912" gradientUnits="userSpaceOnUse">
<stop stop-color="#EAB949"/>
<stop offset="0.0722" stop-color="#EDC25A"/>
<stop offset="0.2779" stop-color="#F3D883"/>
<stop offset="0.4784" stop-color="#F8E9A4"/>
<stop offset="0.6698" stop-color="#FCF5BC"/>
<stop offset="0.8479" stop-color="#FEFCCA"/>
<stop offset="1" stop-color="#FFFFCF"/>
</linearGradient>
<radialGradient id="paint31_radial_1_5" cx="0" cy="0" r="1" gradientUnits="userSpaceOnUse" gradientTransform="translate(26.0474 24.8675) scale(14.1345 14.1701)">
<stop offset="0.0036" stop-color="#EFD916"/>
<stop offset="0.1053" stop-color="#EFD516"/>
<stop offset="0.216" stop-color="#EDC715"/>
<stop offset="0.3308" stop-color="#EBB213"/>
<stop offset="0.4485" stop-color="#E89312"/>
<stop offset="0.5673" stop-color="#E36D0F"/>
<stop offset="0.65" stop-color="#E04D0D"/>
<stop offset="0.7851" stop-color="#CE2907"/>
<stop offset="0.9224" stop-color="#BF0B02"/>
<stop offset="1" stop-color="#B90000"/>
</radialGradient>
<linearGradient id="paint32_linear_1_5" x1="17.5428" y1="13.8016" x2="17.6012" y2="13.8016" gradientUnits="userSpaceOnUse">
<stop stop-color="#FD7E36"/>
<stop offset="1" stop-color="#BD6F4F"/>
</linearGradient>
<linearGradient id="paint33_linear_1_5" x1="17.5717" y1="13.4674" x2="29.2284" y2="13.4674" gradientUnits="userSpaceOnUse">
<stop stop-color="#FC2B21"/>
<stop offset="0.236" stop-color="#FF590A"/>
<stop offset="0.2478" stop-color="#FB570B"/>
<stop offset="0.3274" stop-color="#E74C0E"/>
<stop offset="0.4172" stop-color="#D84511"/>
<stop offset="0.5247" stop-color="#D04013"/>
<stop offset="0.6966" stop-color="#CD3F13"/>
<stop offset="0.7958" stop-color="#D04213"/>
<stop offset="0.8688" stop-color="#D84B14"/>
<stop offset="0.9334" stop-color="#E65B16"/>
<stop offset="0.9927" stop-color="#F97219"/>
<stop offset="1" stop-color="#FC7519"/>
</linearGradient>
<linearGradient id="paint34_linear_1_5" x1="14.5706" y1="19.2448" x2="17.8462" y2="19.2448" gradientUnits="userSpaceOnUse">
<stop stop-color="#FD7E36"/>
<stop offset="1" stop-color="#BD6F4F"/>
</linearGradient>
<linearGradient id="paint35_linear_1_5" x1="29.7787" y1="15.0351" x2="19.4921" y2="13.027" gradientUnits="userSpaceOnUse">
<stop stop-color="#FE560D"/>
<stop offset="1" stop-color="#8C1501"/>
</linearGradient>
<linearGradient id="paint36_linear_1_5" x1="23.3936" y1="14.8936" x2="23.2605" y2="11.2659" gradientUnits="userSpaceOnUse">
<stop stop-color="#FE560D"/>
<stop offset="1" stop-color="#8C1501"/>
</linearGradient>
<linearGradient id="paint37_linear_1_5" x1="25.8749" y1="19.8046" x2="29.2766" y2="19.8046" gradientUnits="userSpaceOnUse">
<stop stop-color="#FD7E36"/>
<stop offset="1" stop-color="#FC895B"/>
</linearGradient>
<linearGradient id="paint38_linear_1_5" x1="14.5786" y1="23.9032" x2="26.2231" y2="23.9032" gradientUnits="userSpaceOnUse">
<stop stop-color="#FD9B20"/>
<stop offset="0.25" stop-color="#FD9B20"/>
<stop offset="0.3365" stop-color="#FDB830"/>
<stop offset="0.4292" stop-color="#FED23E"/>
<stop offset="0.4851" stop-color="#FEDB43"/>
<stop offset="0.75" stop-color="#FE8411"/>
<stop offset="1" stop-color="#FE560D"/>
</linearGradient>
<linearGradient id="paint39_linear_1_5" x1="17.5428" y1="13.8016" x2="17.6015" y2="13.8016" gradientUnits="userSpaceOnUse">
<stop stop-color="#FD7E36"/>
<stop offset="1" stop-color="#BD6F4F"/>
</linearGradient>
<linearGradient id="paint40_linear_1_5" x1="17.5712" y1="13.4677" x2="29.2284" y2="13.4677" gradientUnits="userSpaceOnUse">
<stop stop-color="#FC2B21"/>
<stop offset="0.236" stop-color="#FF590A"/>
<stop offset="0.2478" stop-color="#FB570B"/>
<stop offset="0.3274" stop-color="#E74C0E"/>
<stop offset="0.4172" stop-color="#D84511"/>
<stop offset="0.5247" stop-color="#D04013"/>
<stop offset="0.6966" stop-color="#CD3F13"/>
<stop offset="0.7958" stop-color="#D04213"/>
<stop offset="0.8688" stop-color="#D84B14"/>
<stop offset="0.9334" stop-color="#E65B16"/>
<stop offset="0.9927" stop-color="#F97219"/>
<stop offset="1" stop-color="#FC7519"/>
</linearGradient>
<radialGradient id="paint41_radial_1_5" cx="0" cy="0" r="1" gradientUnits="userSpaceOnUse" gradientTransform="translate(26.4367 26.4403) scale(16.1735 16.2143)">
<stop offset="0.005" stop-color="#D1E787"/>
<stop offset="0.1227" stop-color="#CEE583"/>
<stop offset="0.2473" stop-color="#C4DE76"/>
<stop offset="0.3751" stop-color="#B3D361"/>
<stop offset="0.5051" stop-color="#9CC443"/>
<stop offset="0.6356" stop-color="#7FB01D"/>
<stop offset="0.6495" stop-color="#7BAE19"/>
<stop offset="0.7789" stop-color="#578D19"/>
<stop offset="0.922" stop-color="#366E1A"/>
<stop offset="1" stop-color="#29621A"/>
</radialGradient>
<linearGradient id="paint42_linear_1_5" x1="30.7923" y1="16.5919" x2="42.4734" y2="16.5919" gradientUnits="userSpaceOnUse">
<stop stop-color="#D3ED89"/>
<stop offset="1" stop-color="#5F821C"/>
</linearGradient>
<linearGradient id="paint43_linear_1_5" x1="29.3159" y1="20.831" x2="29.0385" y2="20.7517" gradientUnits="userSpaceOnUse">
<stop offset="0.2822" stop-color="#D3ED89"/>
<stop offset="0.4045" stop-color="#D3ED89"/>
<stop offset="1" stop-color="#5F821C"/>
</linearGradient>
<linearGradient id="paint44_linear_1_5" x1="30.8041" y1="15.5612" x2="30.5374" y2="15.5426" gradientUnits="userSpaceOnUse">
<stop stop-color="#7AA922"/>
<stop offset="0.2" stop-color="#D3ED89"/>
<stop offset="0.525" stop-color="#D3ED89"/>
<stop offset="1" stop-color="#7AA922"/>
</linearGradient>
<linearGradient id="paint45_linear_1_5" x1="39.6236" y1="21.64" x2="42.8732" y2="21.64" gradientUnits="userSpaceOnUse">
<stop offset="0.0056" stop-color="#7AA922"/>
<stop offset="0.1685" stop-color="#1D4A20"/>
<stop offset="0.382" stop-color="#26551B"/>
<stop offset="1" stop-color="#7AA922"/>
</linearGradient>
<linearGradient id="paint46_linear_1_5" x1="39.6415" y1="26.783" x2="39.3788" y2="26.7647" gradientUnits="userSpaceOnUse">
<stop stop-color="#7AA922"/>
<stop offset="1" stop-color="#D3ED89"/>
</linearGradient>
<linearGradient id="paint47_linear_1_5" x1="39.7591" y1="26.8071" x2="39.5924" y2="26.9919" gradientUnits="userSpaceOnUse">
<stop stop-color="#5F821C"/>
<stop offset="1" stop-color="#26551B"/>
</linearGradient>
<linearGradient id="paint48_linear_1_5" x1="27.6844" y1="27.134" x2="39.5149" y2="27.134" gradientUnits="userSpaceOnUse">
<stop stop-color="#7AA922"/>
<stop offset="0.4" stop-color="#D3ED89"/>
<stop offset="1" stop-color="#7AA922"/>
</linearGradient>
<linearGradient id="paint49_linear_1_5" x1="27.6118" y1="26.2255" x2="27.4244" y2="26.0179" gradientUnits="userSpaceOnUse">
<stop stop-color="#1D3A19"/>
<stop offset="0.1" stop-color="#26551B"/>
<stop offset="0.65" stop-color="#7AA922"/>
<stop offset="1" stop-color="#D3ED89"/>
</linearGradient>
<linearGradient id="paint50_linear_1_5" x1="27.6055" y1="25.8892" x2="27.7422" y2="26.1351" gradientUnits="userSpaceOnUse">
<stop stop-color="#5F821C"/>
<stop offset="0.4045" stop-color="#7AA922"/>
<stop offset="0.8" stop-color="#5F821C"/>
<stop offset="1" stop-color="#5F821C"/>
</linearGradient>
<linearGradient id="paint51_linear_1_5" x1="42.7399" y1="16.4548" x2="42.7787" y2="16.323" gradientUnits="userSpaceOnUse">
<stop stop-color="#5B7F30"/>
<stop offset="1" stop-color="#D3ED89"/>
</linearGradient>
<linearGradient id="paint52_linear_1_5" x1="42.5003" y1="18.1177" x2="30.6021" y2="14.7145" gradientUnits="userSpaceOnUse">
<stop stop-color="#1D3419"/>
<stop offset="0.2277" stop-color="#26551B"/>
<stop offset="1" stop-color="#7AA922"/>
</linearGradient>
<linearGradient id="paint53_linear_1_5" x1="41.1605" y1="21.5423" x2="40.885" y2="21.4634" gradientUnits="userSpaceOnUse">
<stop stop-color="#5F821C"/>
<stop offset="1" stop-color="#75C146"/>
</linearGradient>
<linearGradient id="paint54_linear_1_5" x1="42.4044" y1="16.4038" x2="42.9388" y2="16.4038" gradientUnits="userSpaceOnUse">
<stop stop-color="#D3ED89"/>
<stop offset="1" stop-color="#5F821C"/>
</linearGradient>
<linearGradient id="paint55_linear_1_5" x1="42.4493" y1="18.2428" x2="30.5858" y2="14.8496" gradientUnits="userSpaceOnUse">
<stop stop-color="#93BF81"/>
<stop offset="0.2277" stop-color="#26551B"/>
<stop offset="1" stop-color="#BDE256"/>
</linearGradient>
<linearGradient id="paint56_linear_1_5" x1="42.7408" y1="16.4555" x2="42.7798" y2="16.3233" gradientUnits="userSpaceOnUse">
<stop stop-color="#5B7F30"/>
<stop offset="1" stop-color="#D3ED89"/>
</linearGradient>
<linearGradient id="paint57_linear_1_5" x1="42.4044" y1="16.4043" x2="42.9397" y2="16.4043" gradientUnits="userSpaceOnUse">
<stop stop-color="#D3ED89"/>
<stop offset="1" stop-color="#5F821C"/>
</linearGradient>
<linearGradient id="paint58_linear_1_5" x1="26.8874" y1="4.74198" x2="26.7948" y2="21.3532" gradientUnits="userSpaceOnUse">
<stop stop-color="white" stop-opacity="0.501901"/>
<stop offset="1" stop-color="white" stop-opacity="0"/>
</linearGradient>
<linearGradient id="paint59_linear_1_5" x1="27.4592" y1="29.3213" x2="26.7888" y2="48.5198" gradientUnits="userSpaceOnUse">
<stop stop-color="#05233F"/>
<stop offset="1" stop-color="#349EC8"/>
</linearGradient>
<clipPath id="clip0_1_5">
<rect width="54" height="54" fill="white"/>
</clipPath>
</defs>
</svg>
